<svg xmlns="http://www.w3.org/2000/svg" viewBox="0 0 256 256">

<defs>
  <filter id="pShadow" x="-30%" y="-30%" width="160%" height="180%">
    <feDropShadow dx="0" dy="10" stdDeviation="8" flood-color="#28509a" flood-opacity=".22"/>
  </filter>
  <linearGradient id="body" x1="0" y1="0" x2="0" y2="1">
    <stop offset="0" stop-color="#6eb8ff"/>
    <stop offset="1" stop-color="#2f68ef"/>
  </linearGradient>
</defs>

<g filter="url(#pShadow)">
  <path d="M68 78c4-37 26-58 60-58s56 21 60 58c21 19 33 48 33 82 0 49-34 76-93 76s-93-27-93-76c0-34 12-63 33-82z" fill="url(#body)"/>
  <path d="M72 73c-19-24-27-47-17-57 12-11 35 3 56 28z" fill="#4d8dff"/>
  <path d="M184 73c19-24 27-47 17-57-12-11-35 3-56 28z" fill="#4d8dff"/>
  <ellipse cx="128" cy="151" rx="64" ry="54" fill="#5da7ff" opacity=".4"/>
  <circle cx="100" cy="111" r="15" fill="#fff"/><circle cx="156" cy="111" r="15" fill="#fff"/><circle cx="105" cy="114" r="7" fill="#18356f"/><circle cx="151" cy="114" r="7" fill="#18356f"/>
  <circle cx="78" cy="137" r="9" fill="#9ed0ff" opacity=".55"/><circle cx="178" cy="137" r="9" fill="#9ed0ff" opacity=".55"/>
  <path d="M113 145c9 10 21 10 30 0" stroke="#18356f" stroke-width="6" stroke-linecap="round" fill="none"/>
  <ellipse cx="81" cy="212" rx="19" ry="10" fill="#2d5ee2" opacity=".5"/>
  <ellipse cx="175" cy="212" rx="19" ry="10" fill="#2d5ee2" opacity=".5"/>
</g>

</svg>
