<svg xmlns="http://www.w3.org/2000/svg" viewBox="0 0 220 220">
<defs><filter id="s" x="-20%" y="-20%" width="140%" height="150%"><feDropShadow dx="0" dy="5" stdDeviation="4" flood-color="#76c965" flood-opacity="0.25"/></filter></defs>
<g filter="url(#s)">
<path d="M109 184c-11-18-15-45-13-69 2-32 16-61 29-61s27 29 29 61c2 24-2 51-13 69z" fill="#f29a24"/>
<ellipse cx="127" cy="114" rx="14" ry="38" fill="#ffb13d" opacity="0.5"/>
<path d="M108 58c-23-4-35-15-39-37 25 4 39 13 47 31z" fill="#63bf55"/>
<path d="M120 56c13-24 27-36 53-43-5 28-21 44-46 50z" fill="#79cf63"/>
<path d="M116 50c-4-24 2-43 18-61 11 24 10 44-4 62z" fill="#51b244"/>
</g>
</svg>