<svg xmlns="http://www.w3.org/2000/svg" viewBox="0 0 220 220">
<defs><filter id="s" x="-20%" y="-20%" width="140%" height="150%"><feDropShadow dx="0" dy="4" stdDeviation="4" flood-color="#7bc36a" flood-opacity="0.22"/></filter></defs>
<g filter="url(#s)">
<path d="M110 168c-6-12-9-28-8-40 1-20 10-37 18-37s17 17 18 37c1 12-2 28-8 40z" fill="#f59f2b"/>
<ellipse cx="120" cy="123" rx="10" ry="22" fill="#ffb13d" opacity="0.55"/>
<path d="M111 91c-17-3-24-12-27-27 17 3 27 9 32 23z" fill="#63bf55"/>
<path d="M117 89c10-16 20-24 37-28-4 19-15 29-31 33z" fill="#79cf63"/>
<path d="M114 85c-2-18 2-31 14-44 8 18 6 32-4 45z" fill="#55b949"/>
</g>
</svg>