<svg xmlns="http://www.w3.org/2000/svg" viewBox="0 0 128 128"><rect width="128" height="128" rx="28" fill="#fff6ea"/><ellipse cx="64" cy="102" rx="34" ry="8" fill="#000" opacity=".08"/><path d="M64 28v17" stroke="#4b9a37" stroke-width="6" stroke-linecap="round"/><path d="M62 31c-10-10-20-12-29-9 5 11 16 19 28 18" fill="#86da5b"/><path d="M66 31c10-10 20-12 29-9-5 11-16 19-28 18" fill="#69c84a"/><path d="M64 42c18 8 23 29 3 49-3 3-8 3-11 0-20-20-15-41 8-49z" fill="#ff8b2b" stroke="#d56119" stroke-width="4"/><path d="M57 57c7 4 9 10 5 17M67 55c5 4 6 9 2 16" stroke="#ffb15d" stroke-width="3" stroke-linecap="round" opacity=".8"/></svg>