<svg xmlns="http://www.w3.org/2000/svg" viewBox="0 0 220 220">
<defs><filter id="s" x="-20%" y="-20%" width="140%" height="150%"><feDropShadow dx="0" dy="6" stdDeviation="4" flood-color="#78cd6a" flood-opacity="0.28"/></filter></defs>
<g filter="url(#s)">
<path d="M110 194c-15-22-20-55-17-84 3-40 21-74 39-74s36 34 39 74c3 29-2 62-17 84z" fill="#ef8f1d"/>
<ellipse cx="134" cy="106" rx="17" ry="44" fill="#ffb13d" opacity="0.46"/>
<path d="M106 42c-30-4-44-18-51-45 33 5 50 16 62 39z" fill="#63bf55"/>
<path d="M123 39c18-31 37-47 70-56-6 37-28 57-60 66z" fill="#79cf63"/>
<path d="M117 30c-4-31 4-55 24-79 15 31 14 56-5 80z" fill="#4fb242"/>
</g>
</svg>