<svg xmlns="http://www.w3.org/2000/svg" viewBox="0 0 220 220">
<defs><filter id="s" x="-20%" y="-20%" width="140%" height="150%"><feDropShadow dx="0" dy="6" stdDeviation="4" flood-color="#7fd06b" flood-opacity="0.26"/></filter></defs>
<g filter="url(#s)">
<path d="M49 165c10-24 30-40 53-41 13-21 36-35 61-35 12 0 24 4 34 10 10-12 24-18 38-18 27 0 49 20 49 46 0 12-5 23-13 31 7 6 12 15 12 26 0 21-19 38-46 38H77c-36 0-64-26-64-59 0-22 13-39 36-49z" fill="#66c54f"/>
<path d="M93 151c27-21 59-27 93-21" stroke="#98ea77" stroke-width="12" stroke-linecap="round"/>
<path d="M119 177c22-18 44-24 68-17" stroke="#88df69" stroke-width="10" stroke-linecap="round"/>
</g>
</svg>