<svg xmlns="http://www.w3.org/2000/svg" viewBox="0 0 220 220">
<defs><filter id="s" x="-20%" y="-20%" width="140%" height="150%"><feDropShadow dx="0" dy="5" stdDeviation="4" flood-color="#7ecb67" flood-opacity="0.24"/></filter></defs>
<g filter="url(#s)">
<path d="M62 160c8-18 24-30 43-31 10-17 28-28 48-28 10 0 20 3 28 8 8-9 19-14 31-14 22 0 39 16 39 37 0 10-4 19-11 26 6 5 10 12 10 21 0 17-15 31-36 31H86c-28 0-51-21-51-47 0-18 11-31 27-39z" fill="#73ca56"/>
<path d="M97 147c22-18 47-23 74-18" stroke="#9feb7a" stroke-width="10" stroke-linecap="round"/>
<path d="M122 166c19-16 38-20 59-14" stroke="#8de36d" stroke-width="8" stroke-linecap="round"/>
</g>
</svg>