<svg xmlns="http://www.w3.org/2000/svg" viewBox="0 0 220 220">
<defs><filter id="s" x="-20%" y="-20%" width="140%" height="150%"><feDropShadow dx="0" dy="4" stdDeviation="4" flood-color="#7bc36a" flood-opacity="0.22"/></filter></defs>
<g filter="url(#s)">
<path d="M77 156c6-11 16-19 30-19 5-11 15-20 30-20 6 0 13 1 19 5 5-6 13-10 22-10 17 0 30 13 30 29 0 8-3 16-9 21 4 4 7 9 7 16 0 13-12 24-28 24H91c-22 0-40-16-40-36 0-13 10-24 26-30z" fill="#83d45f"/>
<path d="M93 152c17-17 36-22 57-18" stroke="#a4ea81" stroke-width="8" stroke-linecap="round"/>
</g>
</svg>