<svg xmlns="http://www.w3.org/2000/svg" viewBox="0 0 128 128">
  <defs><linearGradient id="g1" x1="0" x2="1" y1="0" y2="1"><stop offset="0" stop-color="#c9f38c"/><stop offset="1" stop-color="#6fc94a"/></linearGradient><linearGradient id="soil" x1="0" x2="1" y1="0" y2="1"><stop offset="0" stop-color="#cf7d3a"/><stop offset="1" stop-color="#925026"/></linearGradient></defs>
  <polygon points="64,10 118,64 64,118 10,64" fill="url(#g1)" stroke="#4b8e37" stroke-width="6"/>
  <polygon points="64,28 100,64 64,100 28,64" fill="url(#soil)" stroke="#6c3b1e" stroke-width="4"/>
  <path d="M64 80V44" stroke="#3f8d31" stroke-width="5" stroke-linecap="round"/>
  <path d="M62 54c-7-9-17-12-24-10 3 11 13 18 24 17" fill="#8fe05e"/>
  <path d="M66 53c7-9 17-12 24-10-3 11-13 18-24 17" fill="#6ecd4b"/>
  <path d="M62 66c-8-7-16-9-22-7 3 9 12 14 22 13" fill="#76d650"/>
  <path d="M66 65c8-7 16-9 22-7-3 9-12 14-22 13" fill="#59ba3c"/>
</svg>