<svg xmlns="http://www.w3.org/2000/svg" viewBox="0 0 256 256">

<defs>
  <filter id="softShadow" x="-30%" y="-30%" width="160%" height="180%">
    <feDropShadow dx="0" dy="10" stdDeviation="8" flood-color="#5b7d49" flood-opacity=".18"/>
  </filter>
  <filter id="goldGlow" x="-50%" y="-50%" width="200%" height="200%">
    <feGaussianBlur stdDeviation="5" result="b"/>
    <feMerge><feMergeNode in="b"/><feMergeNode in="SourceGraphic"/></feMerge>
  </filter>
  <linearGradient id="grass" x1="0" y1="0" x2="0" y2="1">
    <stop offset="0" stop-color="#b9f66d"/>
    <stop offset="1" stop-color="#6dc94a"/>
  </linearGradient>
  <linearGradient id="soil" x1="0" y1="0" x2="0" y2="1">
    <stop offset="0" stop-color="#9a6339"/>
    <stop offset="1" stop-color="#6a3e27"/>
  </linearGradient>
  <radialGradient id="plotGlow" cx="50%" cy="42%" r="55%">
    <stop offset="0" stop-color="#fff9ba"/>
    <stop offset=".55" stop-color="#ffd35a"/>
    <stop offset="1" stop-color="#f6a61d"/>
  </radialGradient>
</defs>

<g filter="url(#softShadow)">
  <path d="M128 94c-23 18 -34 52 -34 94 0 28 34 42 34 42s34-14 34-42c0-22-9-56-26-94z" fill="#f28b21"/>
  <ellipse cx="139" cy="134" rx="13" ry="31" fill="#ffb14a" opacity=".48"/>
  <path d="M126 94c-23-4-37-16-43-39 27 4 43 14 52 33z" fill="#70c957"/>
  <path d="M135 94c14-25 31-38 58-45-5 32-24 50-52 57z" fill="#80d663"/>
  <path d="M130 90c-3-25 3-45 20-64 11 27 9 47-6 65z" fill="#57b849"/>
  <circle cx="120" cy="138" r="3" fill="#81431f"/><circle cx="138" cy="138" r="3" fill="#81431f"/><path d="M123 149c5 5 12 5 17 0" stroke="#81431f" stroke-width="4" stroke-linecap="round" fill="none"/><g fill="#fff7ad"><path d="M70 72l5 10 10 5-10 5-5 10-5-10-10-5 10-5z"/><path d="M188 96l4 8 8 4-8 4-4 8-4-8-8-4 8-4z"/></g>
</g>

</svg>
