<svg xmlns="http://www.w3.org/2000/svg" viewBox="0 0 256 256">

<defs>
  <filter id="softShadow" x="-30%" y="-30%" width="160%" height="180%">
    <feDropShadow dx="0" dy="10" stdDeviation="8" flood-color="#5b7d49" flood-opacity=".18"/>
  </filter>
  <filter id="goldGlow" x="-50%" y="-50%" width="200%" height="200%">
    <feGaussianBlur stdDeviation="5" result="b"/>
    <feMerge><feMergeNode in="b"/><feMergeNode in="SourceGraphic"/></feMerge>
  </filter>
  <linearGradient id="grass" x1="0" y1="0" x2="0" y2="1">
    <stop offset="0" stop-color="#b9f66d"/>
    <stop offset="1" stop-color="#6dc94a"/>
  </linearGradient>
  <linearGradient id="soil" x1="0" y1="0" x2="0" y2="1">
    <stop offset="0" stop-color="#9a6339"/>
    <stop offset="1" stop-color="#6a3e27"/>
  </linearGradient>
  <radialGradient id="plotGlow" cx="50%" cy="42%" r="55%">
    <stop offset="0" stop-color="#fff9ba"/>
    <stop offset=".55" stop-color="#ffd35a"/>
    <stop offset="1" stop-color="#f6a61d"/>
  </radialGradient>
</defs>

<g filter="url(#softShadow)" transform="translate(128 150) scale(0.7) translate(-128 -150)">
  <path d="M58 162c8-24 29-40 54-40 12-22 35-36 62-36 32 0 58 23 58 52 0 12-4 23-13 32 8 7 13 17 13 29 0 22-20 40-49 40H84c-38 0-68-27-68-61 0-24 16-43 42-56z" fill="#67c951"/>
  <path d="M92 154c30-26 67-33 107-24" stroke="#98ec78" stroke-width="13" stroke-linecap="round" fill="none"/>
  <path d="M118 184c25-21 52-28 79-18" stroke="#86dd65" stroke-width="11" stroke-linecap="round" fill="none"/>
  <path d="M82 188c16-19 37-26 63-23" stroke="#b9ff93" stroke-width="8" stroke-linecap="round" fill="none" opacity=".75"/>
  
</g>

</svg>
