<svg xmlns="http://www.w3.org/2000/svg" viewBox="0 0 256 256">

<defs>
  <filter id="softShadow" x="-30%" y="-30%" width="160%" height="180%">
    <feDropShadow dx="0" dy="10" stdDeviation="8" flood-color="#5b7d49" flood-opacity=".18"/>
  </filter>
  <filter id="goldGlow" x="-50%" y="-50%" width="200%" height="200%">
    <feGaussianBlur stdDeviation="5" result="b"/>
    <feMerge><feMergeNode in="b"/><feMergeNode in="SourceGraphic"/></feMerge>
  </filter>
  <linearGradient id="grass" x1="0" y1="0" x2="0" y2="1">
    <stop offset="0" stop-color="#b9f66d"/>
    <stop offset="1" stop-color="#6dc94a"/>
  </linearGradient>
  <linearGradient id="soil" x1="0" y1="0" x2="0" y2="1">
    <stop offset="0" stop-color="#9a6339"/>
    <stop offset="1" stop-color="#6a3e27"/>
  </linearGradient>
  <radialGradient id="plotGlow" cx="50%" cy="42%" r="55%">
    <stop offset="0" stop-color="#fff9ba"/>
    <stop offset=".55" stop-color="#ffd35a"/>
    <stop offset="1" stop-color="#f6a61d"/>
  </radialGradient>
</defs>

<g filter="url(#softShadow)">
  <circle cx="128" cy="128" r="86" fill="#fff7d9"/>
  <circle cx="128" cy="128" r="74" fill="#fffbe9" stroke="#ffd979" stroke-width="4"/>
  <path d="M129 74c-20 18-38 52-47 91-4 18 13 30 29 20 34-20 56-50 65-85 4-17-34-36-47-26z" fill="#f28b21"/><path d="M128 68c-21-4-36-15-44-33 24 3 40 12 49 28z" fill="#70c957"/><path d="M138 67c13-22 30-34 54-41-5 28-22 43-46 49z" fill="#80d663"/>
</g>

</svg>
