<svg xmlns="http://www.w3.org/2000/svg" viewBox="0 0 160 200"><defs><linearGradient id="p" x1="0" x2="0" y1="0" y2="1"><stop offset="0" stop-color="#fff"/><stop offset="1" stop-color="#ffe8d2"/></linearGradient></defs><rect x="10" y="10" width="140" height="180" rx="24" fill="url(#p)" stroke="#ffd2b3" stroke-width="4"/><rect x="22" y="24" width="116" height="34" rx="17" fill="#ff7a32"/><text x="80" y="47" text-anchor="middle" font-family="Arial" font-size="16" font-weight="700" fill="#fff">Bibit Wortel</text><circle cx="80" cy="106" r="38" fill="#fff7ed" stroke="#ffd8bd" stroke-width="3"/><path d="M80 86v12" stroke="#4b9a37" stroke-width="5" stroke-linecap="round"/><path d="M78 88c-8-8-16-10-23-8 4 9 12 15 22 14" fill="#86da5b"/><path d="M82 88c8-8 16-10 23-8-4 9-12 15-22 14" fill="#69c84a"/><path d="M80 98c14 6 18 22 2 37-2 2-6 2-8 0-16-15-12-31 6-37z" fill="#ff8b2b" stroke="#d56119" stroke-width="3"/><text x="80" y="160" text-anchor="middle" font-family="Arial" font-size="14" fill="#8a5a3b">Cepat tumbuh • 3x siram</text></svg>