<svg xmlns="http://www.w3.org/2000/svg" viewBox="0 0 160 200"><defs><linearGradient id="p" x1="0" x2="0" y1="0" y2="1"><stop offset="0" stop-color="#fff"/><stop offset="1" stop-color="#ffe3e1"/></linearGradient></defs><rect x="10" y="10" width="140" height="180" rx="24" fill="url(#p)" stroke="#ffc3be" stroke-width="4"/><rect x="22" y="24" width="116" height="34" rx="17" fill="#ef5350"/><text x="80" y="47" text-anchor="middle" font-family="Arial" font-size="16" font-weight="700" fill="#fff">Bibit Tomat</text><circle cx="80" cy="106" r="38" fill="#fff7f5" stroke="#ffd7d2" stroke-width="3"/><circle cx="80" cy="108" r="28" fill="#ff5b47" stroke="#d43d2f" stroke-width="5"/><path d="M80 78l4 8 9-5-2 10 10 1-8 5 6 8-10-1-2 10-7-8-7 8-2-10-10 1 6-8-8-5 10-1-2-10 9 5z" fill="#5db640" stroke="#478b31" stroke-width="3" stroke-linejoin="round"/><text x="80" y="160" text-anchor="middle" font-family="Arial" font-size="14" fill="#8e4d4a">Reward tinggi • 4x siram</text></svg>