<svg xmlns="http://www.w3.org/2000/svg" viewBox="0 0 220 220">
<defs><filter id="s" x="-20%" y="-20%" width="140%" height="150%"><feDropShadow dx="0" dy="5" stdDeviation="4" flood-color="#7bc96a" flood-opacity="0.24"/></filter></defs>
<g filter="url(#s)">
<path d="M109 190c0-58 3-91 10-132" stroke="#4ea845" stroke-width="12" stroke-linecap="round"/>
<path d="M116 85c-18-6-30-18-38-37 22 3 36 13 44 31z" fill="#72c65d"/>
<path d="M120 114c18-8 34-5 47 10-21 5-37 3-48-7z" fill="#84d56f"/>
<path d="M108 135c-19 2-34-4-46-18 21-3 37 1 48 12z" fill="#6fbe59"/>
<g transform="translate(143 134)">
 <circle cx="0" cy="0" r="23" fill="#ee5a4a"/>
 <circle cx="7" cy="-8" r="8" fill="#ff8c7d" opacity="0.5"/>
 <path d="M0-18l5-10 5 10-8-5 6 8-8-3-8 3 6-8-8 5 5-10z" fill="#5fb64f"/>
</g>
<g transform="translate(90 157)">
 <circle cx="0" cy="0" r="18" fill="#f1755d"/>
 <circle cx="6" cy="-6" r="6" fill="#ff9b87" opacity="0.45"/>
 <path d="M0-14l4-7 4 7-6-3 5 6-7-2-7 2 5-6-6 3 4-7z" fill="#63bb54"/>
</g>
</g>
</svg>